<mxfile host="app.diagrams.net" agent="Mozilla/5.0 (Windows NT 10.0; Win64; x64) AppleWebKit/537.36 (KHTML, like Gecko) Chrome/130.0.0.0 Safari/537.36" version="24.9.1" pages="7">
  <diagram id="prtHgNgQTEPvFCAcTncT" name="TcpServer">
    <mxGraphModel dx="1221" dy="1890" grid="1" gridSize="10" guides="1" tooltips="1" connect="1" arrows="1" fold="1" page="1" pageScale="1" pageWidth="827" pageHeight="1169" math="0" shadow="0">
      <root>
        <mxCell id="0" />
        <mxCell id="1" parent="0" />
        <mxCell id="w-5B9X87PKajbWUww9_c-4" value="&lt;div&gt;&lt;br&gt;&lt;/div&gt;&lt;div&gt;&lt;br&gt;&lt;/div&gt;&lt;div&gt;&lt;br&gt;&lt;/div&gt;&lt;div&gt;&lt;br&gt;&lt;/div&gt;&lt;div&gt;&lt;br&gt;&lt;/div&gt;&lt;div&gt;&lt;br&gt;&lt;/div&gt;&lt;div&gt;&lt;br&gt;&lt;/div&gt;&lt;div&gt;&lt;br&gt;&lt;/div&gt;&lt;div&gt;&lt;br&gt;&lt;/div&gt;&lt;div&gt;&lt;br&gt;&lt;/div&gt;&lt;div&gt;&amp;nbsp; &amp;nbsp; &amp;nbsp; &amp;nbsp; &amp;nbsp; &amp;nbsp; &amp;nbsp; &amp;nbsp; &amp;nbsp; &amp;nbsp; &amp;nbsp; &amp;nbsp; &amp;nbsp;EventLoopThreadPool&lt;/div&gt;&lt;div&gt;&lt;br&gt;&lt;/div&gt;" style="rounded=1;whiteSpace=wrap;html=1;" vertex="1" parent="1">
          <mxGeometry x="590" y="700" width="310" height="180" as="geometry" />
        </mxCell>
        <mxCell id="kOLJ9x9P0rwoulzAmRDx-1" value="TcpServer" style="swimlane;fontStyle=0;childLayout=stackLayout;horizontal=1;startSize=26;horizontalStack=0;resizeParent=1;resizeParentMax=0;resizeLast=0;collapsible=1;marginBottom=0;align=center;fontSize=14;fillColor=#f5f5f5;fontColor=#333333;strokeColor=#666666;" vertex="1" parent="1">
          <mxGeometry x="280" y="-140" width="300" height="206" as="geometry" />
        </mxCell>
        <mxCell id="kOLJ9x9P0rwoulzAmRDx-2" value="socket_(IP和PORT信息)" style="text;strokeColor=#82b366;fillColor=#d5e8d4;spacingLeft=4;spacingRight=4;overflow=hidden;rotatable=0;points=[[0,0.5],[1,0.5]];portConstraint=eastwest;fontSize=12;whiteSpace=wrap;html=1;" vertex="1" parent="kOLJ9x9P0rwoulzAmRDx-1">
          <mxGeometry y="26" width="300" height="30" as="geometry" />
        </mxCell>
        <mxCell id="kOLJ9x9P0rwoulzAmRDx-5" value="mainLoop_" style="text;strokeColor=#d79b00;fillColor=#ffe6cc;spacingLeft=4;spacingRight=4;overflow=hidden;rotatable=0;points=[[0,0.5],[1,0.5]];portConstraint=eastwest;fontSize=12;whiteSpace=wrap;html=1;" vertex="1" parent="kOLJ9x9P0rwoulzAmRDx-1">
          <mxGeometry y="56" width="300" height="30" as="geometry" />
        </mxCell>
        <mxCell id="kOLJ9x9P0rwoulzAmRDx-4" value="acceptor_" style="text;strokeColor=#d79b00;fillColor=#ffe6cc;spacingLeft=4;spacingRight=4;overflow=hidden;rotatable=0;points=[[0,0.5],[1,0.5]];portConstraint=eastwest;fontSize=12;whiteSpace=wrap;html=1;" vertex="1" parent="kOLJ9x9P0rwoulzAmRDx-1">
          <mxGeometry y="86" width="300" height="30" as="geometry" />
        </mxCell>
        <mxCell id="kOLJ9x9P0rwoulzAmRDx-7" value="eventLoopThreadPool" style="text;strokeColor=#b85450;fillColor=#f8cecc;spacingLeft=4;spacingRight=4;overflow=hidden;rotatable=0;points=[[0,0.5],[1,0.5]];portConstraint=eastwest;fontSize=12;whiteSpace=wrap;html=1;" vertex="1" parent="kOLJ9x9P0rwoulzAmRDx-1">
          <mxGeometry y="116" width="300" height="30" as="geometry" />
        </mxCell>
        <mxCell id="kOLJ9x9P0rwoulzAmRDx-6" value="nextThread_" style="text;strokeColor=#b85450;fillColor=#f8cecc;spacingLeft=4;spacingRight=4;overflow=hidden;rotatable=0;points=[[0,0.5],[1,0.5]];portConstraint=eastwest;fontSize=12;whiteSpace=wrap;html=1;" vertex="1" parent="kOLJ9x9P0rwoulzAmRDx-1">
          <mxGeometry y="146" width="300" height="30" as="geometry" />
        </mxCell>
        <mxCell id="kOLJ9x9P0rwoulzAmRDx-8" value="callBack_(连接建立和消息读写回调)" style="text;strokeColor=#9673a6;fillColor=#e1d5e7;spacingLeft=4;spacingRight=4;overflow=hidden;rotatable=0;points=[[0,0.5],[1,0.5]];portConstraint=eastwest;fontSize=12;whiteSpace=wrap;html=1;" vertex="1" parent="kOLJ9x9P0rwoulzAmRDx-1">
          <mxGeometry y="176" width="300" height="30" as="geometry" />
        </mxCell>
        <mxCell id="w-5B9X87PKajbWUww9_c-3" style="edgeStyle=orthogonalEdgeStyle;rounded=0;orthogonalLoop=1;jettySize=auto;html=1;exitX=0.5;exitY=1;exitDx=0;exitDy=0;entryX=0.25;entryY=0;entryDx=0;entryDy=0;" edge="1" parent="1" source="w-5B9X87PKajbWUww9_c-1" target="v7IpHMiIBvsScgo4C8e--2">
          <mxGeometry relative="1" as="geometry" />
        </mxCell>
        <mxCell id="w-5B9X87PKajbWUww9_c-6" value="" style="group" vertex="1" connectable="0" parent="1">
          <mxGeometry x="606" y="320" width="180" height="90" as="geometry" />
        </mxCell>
        <mxCell id="w-5B9X87PKajbWUww9_c-7" value="" style="group" vertex="1" connectable="0" parent="w-5B9X87PKajbWUww9_c-6">
          <mxGeometry width="180" height="90" as="geometry" />
        </mxCell>
        <mxCell id="w-5B9X87PKajbWUww9_c-2" value="&lt;div&gt;&lt;br&gt;&lt;/div&gt;&lt;div&gt;&lt;br&gt;&lt;/div&gt;&lt;div&gt;&lt;br&gt;&lt;/div&gt;&lt;div&gt;&lt;br&gt;&lt;/div&gt;&lt;div&gt;&lt;br&gt;&lt;/div&gt;&amp;nbsp; &amp;nbsp; &amp;nbsp; &amp;nbsp; &amp;nbsp; &amp;nbsp; &amp;nbsp; &amp;nbsp; &amp;nbsp; &amp;nbsp; &amp;nbsp; &amp;nbsp; &amp;nbsp; &amp;nbsp; &amp;nbsp; &amp;nbsp; &amp;nbsp; &amp;nbsp; &amp;nbsp; &amp;nbsp; &amp;nbsp; &amp;nbsp; &amp;nbsp; &amp;nbsp; &amp;nbsp; &amp;nbsp; &amp;nbsp; &amp;nbsp; &amp;nbsp; &amp;nbsp; &amp;nbsp; &amp;nbsp; &amp;nbsp; &amp;nbsp; &amp;nbsp; &amp;nbsp; &amp;nbsp; &amp;nbsp; &amp;nbsp; &amp;nbsp; &amp;nbsp; &amp;nbsp; &amp;nbsp; &amp;nbsp; &amp;nbsp; &amp;nbsp; &amp;nbsp; &amp;nbsp; &amp;nbsp; &amp;nbsp; &amp;nbsp; &amp;nbsp; &amp;nbsp; &amp;nbsp; &amp;nbsp; &amp;nbsp; &amp;nbsp; &amp;nbsp; &amp;nbsp; &amp;nbsp; &amp;nbsp;AccepteThread&lt;div&gt;&lt;br&gt;&lt;/div&gt;&lt;div&gt;&lt;br&gt;&lt;/div&gt;" style="rounded=0;whiteSpace=wrap;html=1;" vertex="1" parent="w-5B9X87PKajbWUww9_c-7">
          <mxGeometry x="-10" width="190" height="90" as="geometry" />
        </mxCell>
        <mxCell id="w-5B9X87PKajbWUww9_c-1" value="MainLoop" style="ellipse;whiteSpace=wrap;html=1;aspect=fixed;" vertex="1" parent="w-5B9X87PKajbWUww9_c-7">
          <mxGeometry x="10.588235294117647" y="10" width="61.64705882352941" height="61.64705882352941" as="geometry" />
        </mxCell>
        <mxCell id="w-5B9X87PKajbWUww9_c-8" value="......" style="text;html=1;align=center;verticalAlign=middle;whiteSpace=wrap;rounded=0;" vertex="1" parent="1">
          <mxGeometry x="786" y="760" width="60" height="30" as="geometry" />
        </mxCell>
        <mxCell id="w-5B9X87PKajbWUww9_c-12" style="edgeStyle=orthogonalEdgeStyle;rounded=0;orthogonalLoop=1;jettySize=auto;html=1;exitX=0.5;exitY=1;exitDx=0;exitDy=0;entryX=0.25;entryY=0;entryDx=0;entryDy=0;" edge="1" parent="1" source="w-5B9X87PKajbWUww9_c-1" target="v7IpHMiIBvsScgo4C8e--2">
          <mxGeometry relative="1" as="geometry" />
        </mxCell>
        <mxCell id="w-5B9X87PKajbWUww9_c-13" value="选择nextThread并wakeup" style="edgeLabel;html=1;align=center;verticalAlign=middle;resizable=0;points=[];" vertex="1" connectable="0" parent="w-5B9X87PKajbWUww9_c-12">
          <mxGeometry x="-0.2685" y="-2" relative="1" as="geometry">
            <mxPoint as="offset" />
          </mxGeometry>
        </mxCell>
        <mxCell id="w-5B9X87PKajbWUww9_c-19" style="rounded=0;orthogonalLoop=1;jettySize=auto;html=1;exitX=0;exitY=0.5;exitDx=0;exitDy=0;entryX=0.5;entryY=0;entryDx=0;entryDy=0;edgeStyle=orthogonalEdgeStyle;" edge="1" parent="1" source="w-5B9X87PKajbWUww9_c-15" target="w-5B9X87PKajbWUww9_c-17">
          <mxGeometry relative="1" as="geometry" />
        </mxCell>
        <mxCell id="k0lgri4VHKJwgKBu8KKJ-1" style="edgeStyle=orthogonalEdgeStyle;rounded=0;orthogonalLoop=1;jettySize=auto;html=1;exitX=0.5;exitY=0;exitDx=0;exitDy=0;entryX=0.5;entryY=1;entryDx=0;entryDy=0;" edge="1" parent="1" source="w-5B9X87PKajbWUww9_c-15" target="w-5B9X87PKajbWUww9_c-32">
          <mxGeometry relative="1" as="geometry" />
        </mxCell>
        <mxCell id="w-5B9X87PKajbWUww9_c-15" value="listenfd1" style="rounded=1;whiteSpace=wrap;html=1;" vertex="1" parent="1">
          <mxGeometry x="300" y="480" width="60" height="40" as="geometry" />
        </mxCell>
        <mxCell id="w-5B9X87PKajbWUww9_c-16" value="" style="rounded=0;whiteSpace=wrap;html=1;" vertex="1" parent="1">
          <mxGeometry x="240" y="560" width="130" height="40" as="geometry" />
        </mxCell>
        <mxCell id="v7IpHMiIBvsScgo4C8e--2" value="&lt;div&gt;&lt;br&gt;&lt;/div&gt;&lt;div&gt;&lt;br&gt;&lt;/div&gt;&lt;div&gt;&lt;br&gt;&lt;/div&gt;&lt;div&gt;&lt;br&gt;&lt;/div&gt;&lt;div&gt;&lt;br&gt;&lt;/div&gt;&amp;nbsp; &amp;nbsp; &amp;nbsp; &amp;nbsp; &amp;nbsp; &amp;nbsp; &amp;nbsp; &amp;nbsp; &amp;nbsp; &amp;nbsp;&amp;nbsp;&lt;div&gt;&lt;span style=&quot;background-color: initial;&quot;&gt;&lt;br&gt;&lt;/span&gt;&lt;/div&gt;&lt;div&gt;&lt;span style=&quot;background-color: initial;&quot;&gt;EventLoopThread&lt;/span&gt;&lt;/div&gt;&lt;div&gt;&lt;div&gt;&lt;br&gt;&lt;/div&gt;&lt;div&gt;&lt;br&gt;&lt;/div&gt;&lt;/div&gt;" style="rounded=0;whiteSpace=wrap;html=1;" vertex="1" parent="1">
          <mxGeometry x="610" y="720" width="150" height="120" as="geometry" />
        </mxCell>
        <mxCell id="v7IpHMiIBvsScgo4C8e--4" value="EventLoop" style="ellipse;whiteSpace=wrap;html=1;aspect=fixed;" vertex="1" parent="1">
          <mxGeometry x="616.18" y="732.67" width="63.82" height="63.82" as="geometry" />
        </mxCell>
        <mxCell id="euGk04DjTXp_lZdAAp4p-8" style="edgeStyle=orthogonalEdgeStyle;rounded=0;orthogonalLoop=1;jettySize=auto;html=1;exitX=0;exitY=0.5;exitDx=0;exitDy=0;entryX=0.25;entryY=0;entryDx=0;entryDy=0;" edge="1" parent="1" source="w-5B9X87PKajbWUww9_c-17" target="euGk04DjTXp_lZdAAp4p-4">
          <mxGeometry relative="1" as="geometry" />
        </mxCell>
        <mxCell id="euGk04DjTXp_lZdAAp4p-10" value="读" style="edgeLabel;html=1;align=center;verticalAlign=middle;resizable=0;points=[];" vertex="1" connectable="0" parent="euGk04DjTXp_lZdAAp4p-8">
          <mxGeometry x="0.6748" y="1" relative="1" as="geometry">
            <mxPoint as="offset" />
          </mxGeometry>
        </mxCell>
        <mxCell id="w-5B9X87PKajbWUww9_c-17" value="fd3" style="rounded=1;whiteSpace=wrap;html=1;" vertex="1" parent="1">
          <mxGeometry x="240" y="560" width="40" height="40" as="geometry" />
        </mxCell>
        <mxCell id="w-5B9X87PKajbWUww9_c-18" value="fd4" style="rounded=1;whiteSpace=wrap;html=1;" vertex="1" parent="1">
          <mxGeometry x="280" y="560" width="40" height="40" as="geometry" />
        </mxCell>
        <mxCell id="w-5B9X87PKajbWUww9_c-26" style="edgeStyle=orthogonalEdgeStyle;rounded=0;orthogonalLoop=1;jettySize=auto;html=1;exitX=0;exitY=0.5;exitDx=0;exitDy=0;entryX=0.5;entryY=0;entryDx=0;entryDy=0;" edge="1" parent="1" source="w-5B9X87PKajbWUww9_c-20" target="w-5B9X87PKajbWUww9_c-24">
          <mxGeometry relative="1" as="geometry" />
        </mxCell>
        <mxCell id="k0lgri4VHKJwgKBu8KKJ-2" style="edgeStyle=orthogonalEdgeStyle;rounded=0;orthogonalLoop=1;jettySize=auto;html=1;exitX=0.5;exitY=0;exitDx=0;exitDy=0;entryX=0.5;entryY=1;entryDx=0;entryDy=0;" edge="1" parent="1" source="w-5B9X87PKajbWUww9_c-20" target="w-5B9X87PKajbWUww9_c-33">
          <mxGeometry relative="1" as="geometry" />
        </mxCell>
        <mxCell id="w-5B9X87PKajbWUww9_c-20" value="listenfd2" style="rounded=1;whiteSpace=wrap;html=1;" vertex="1" parent="1">
          <mxGeometry x="436" y="480" width="60" height="40" as="geometry" />
        </mxCell>
        <mxCell id="w-5B9X87PKajbWUww9_c-23" value="" style="rounded=0;whiteSpace=wrap;html=1;" vertex="1" parent="1">
          <mxGeometry x="396" y="556.49" width="130" height="40" as="geometry" />
        </mxCell>
        <mxCell id="w-5B9X87PKajbWUww9_c-24" value="fd5" style="rounded=1;whiteSpace=wrap;html=1;" vertex="1" parent="1">
          <mxGeometry x="396" y="556.49" width="40" height="40" as="geometry" />
        </mxCell>
        <mxCell id="w-5B9X87PKajbWUww9_c-25" value="fd6" style="rounded=1;whiteSpace=wrap;html=1;" vertex="1" parent="1">
          <mxGeometry x="436" y="556.49" width="40" height="40" as="geometry" />
        </mxCell>
        <mxCell id="k0lgri4VHKJwgKBu8KKJ-5" style="edgeStyle=orthogonalEdgeStyle;rounded=0;orthogonalLoop=1;jettySize=auto;html=1;exitX=0.5;exitY=0;exitDx=0;exitDy=0;entryX=0;entryY=0.5;entryDx=0;entryDy=0;dashed=1;" edge="1" parent="1" source="w-5B9X87PKajbWUww9_c-32" target="w-5B9X87PKajbWUww9_c-1">
          <mxGeometry relative="1" as="geometry" />
        </mxCell>
        <mxCell id="k0lgri4VHKJwgKBu8KKJ-7" value="注册可读事件" style="edgeLabel;html=1;align=center;verticalAlign=middle;resizable=0;points=[];" vertex="1" connectable="0" parent="k0lgri4VHKJwgKBu8KKJ-5">
          <mxGeometry x="0.4976" y="1" relative="1" as="geometry">
            <mxPoint as="offset" />
          </mxGeometry>
        </mxCell>
        <mxCell id="w-5B9X87PKajbWUww9_c-32" value="accepteChannel1" style="rounded=1;whiteSpace=wrap;html=1;" vertex="1" parent="1">
          <mxGeometry x="280" y="399" width="100" height="40" as="geometry" />
        </mxCell>
        <mxCell id="k0lgri4VHKJwgKBu8KKJ-6" style="edgeStyle=orthogonalEdgeStyle;rounded=0;orthogonalLoop=1;jettySize=auto;html=1;exitX=0.5;exitY=0;exitDx=0;exitDy=0;endArrow=none;endFill=0;dashed=1;" edge="1" parent="1" source="w-5B9X87PKajbWUww9_c-33">
          <mxGeometry relative="1" as="geometry">
            <mxPoint x="466" y="360" as="targetPoint" />
          </mxGeometry>
        </mxCell>
        <mxCell id="w-5B9X87PKajbWUww9_c-33" value="accepteChannel2" style="rounded=1;whiteSpace=wrap;html=1;" vertex="1" parent="1">
          <mxGeometry x="416" y="399" width="100" height="40" as="geometry" />
        </mxCell>
        <mxCell id="4ElnciHjI3wv03vOz4kF-1" style="edgeStyle=orthogonalEdgeStyle;rounded=0;orthogonalLoop=1;jettySize=auto;html=1;exitX=0.5;exitY=1;exitDx=0;exitDy=0;entryX=0;entryY=0.5;entryDx=0;entryDy=0;dashed=1;" edge="1" parent="1" source="w-5B9X87PKajbWUww9_c-34" target="v7IpHMiIBvsScgo4C8e--4">
          <mxGeometry relative="1" as="geometry" />
        </mxCell>
        <mxCell id="4ElnciHjI3wv03vOz4kF-3" value="注册读写事件" style="edgeLabel;html=1;align=center;verticalAlign=middle;resizable=0;points=[];" vertex="1" connectable="0" parent="4ElnciHjI3wv03vOz4kF-1">
          <mxGeometry x="0.4396" y="2" relative="1" as="geometry">
            <mxPoint as="offset" />
          </mxGeometry>
        </mxCell>
        <mxCell id="w-5B9X87PKajbWUww9_c-34" value="Channel1" style="rounded=1;whiteSpace=wrap;html=1;" vertex="1" parent="1">
          <mxGeometry x="239" y="680" width="100" height="40" as="geometry" />
        </mxCell>
        <mxCell id="4ElnciHjI3wv03vOz4kF-2" style="edgeStyle=orthogonalEdgeStyle;rounded=0;orthogonalLoop=1;jettySize=auto;html=1;exitX=0.5;exitY=1;exitDx=0;exitDy=0;dashed=1;endArrow=none;endFill=0;" edge="1" parent="1" source="w-5B9X87PKajbWUww9_c-35">
          <mxGeometry relative="1" as="geometry">
            <mxPoint x="443" y="760" as="targetPoint" />
          </mxGeometry>
        </mxCell>
        <mxCell id="w-5B9X87PKajbWUww9_c-35" value="Channel2" style="rounded=1;whiteSpace=wrap;html=1;" vertex="1" parent="1">
          <mxGeometry x="393" y="680" width="100" height="40" as="geometry" />
        </mxCell>
        <mxCell id="k0lgri4VHKJwgKBu8KKJ-3" style="edgeStyle=orthogonalEdgeStyle;rounded=0;orthogonalLoop=1;jettySize=auto;html=1;exitX=0;exitY=1;exitDx=0;exitDy=0;entryX=0.41;entryY=-0.042;entryDx=0;entryDy=0;entryPerimeter=0;" edge="1" parent="1" source="w-5B9X87PKajbWUww9_c-18" target="w-5B9X87PKajbWUww9_c-34">
          <mxGeometry relative="1" as="geometry" />
        </mxCell>
        <mxCell id="k0lgri4VHKJwgKBu8KKJ-4" style="edgeStyle=orthogonalEdgeStyle;rounded=0;orthogonalLoop=1;jettySize=auto;html=1;exitX=0;exitY=1;exitDx=0;exitDy=0;entryX=0.43;entryY=-0.025;entryDx=0;entryDy=0;entryPerimeter=0;" edge="1" parent="1" source="w-5B9X87PKajbWUww9_c-25" target="w-5B9X87PKajbWUww9_c-35">
          <mxGeometry relative="1" as="geometry" />
        </mxCell>
        <mxCell id="euGk04DjTXp_lZdAAp4p-9" style="edgeStyle=orthogonalEdgeStyle;rounded=0;orthogonalLoop=1;jettySize=auto;html=1;exitX=0.75;exitY=0;exitDx=0;exitDy=0;startArrow=classic;startFill=1;endArrow=none;endFill=0;" edge="1" parent="1" source="euGk04DjTXp_lZdAAp4p-4">
          <mxGeometry relative="1" as="geometry">
            <mxPoint x="165" y="580" as="targetPoint" />
          </mxGeometry>
        </mxCell>
        <mxCell id="euGk04DjTXp_lZdAAp4p-11" value="写" style="edgeLabel;html=1;align=center;verticalAlign=middle;resizable=0;points=[];" vertex="1" connectable="0" parent="euGk04DjTXp_lZdAAp4p-9">
          <mxGeometry x="0.1667" y="-2" relative="1" as="geometry">
            <mxPoint as="offset" />
          </mxGeometry>
        </mxCell>
        <mxCell id="euGk04DjTXp_lZdAAp4p-4" value="user buffer" style="rounded=0;whiteSpace=wrap;html=1;fillColor=#fad7ac;strokeColor=#b46504;" vertex="1" parent="1">
          <mxGeometry x="60" y="640" width="140" height="40" as="geometry" />
        </mxCell>
      </root>
    </mxGraphModel>
  </diagram>
  <diagram id="VQHwBG3hMwfDKDB8BSOR" name="EventLoopThreadPool">
    <mxGraphModel dx="1221" dy="721" grid="1" gridSize="10" guides="1" tooltips="1" connect="1" arrows="1" fold="1" page="1" pageScale="1" pageWidth="827" pageHeight="1169" math="0" shadow="0">
      <root>
        <mxCell id="0" />
        <mxCell id="1" parent="0" />
        <mxCell id="vMDBgwL5FvgC56sLGkDT-1" value="EventLoopThreadPool" style="swimlane;startSize=20;horizontal=1;containerType=tree;" vertex="1" parent="1">
          <mxGeometry x="120" y="120" width="520" height="200" as="geometry" />
        </mxCell>
        <mxCell id="vMDBgwL5FvgC56sLGkDT-3" value="Threa1" style="whiteSpace=wrap;html=1;treeFolding=1;treeMoving=1;newEdgeStyle={&quot;edgeStyle&quot;:&quot;elbowEdgeStyle&quot;,&quot;startArrow&quot;:&quot;none&quot;,&quot;endArrow&quot;:&quot;none&quot;};fillColor=#fad7ac;strokeColor=#b46504;" vertex="1" parent="vMDBgwL5FvgC56sLGkDT-1">
          <mxGeometry x="40" y="40" width="120" height="40" as="geometry" />
        </mxCell>
        <mxCell id="vMDBgwL5FvgC56sLGkDT-4" value="EventLoop1" style="whiteSpace=wrap;html=1;treeFolding=1;treeMoving=1;newEdgeStyle={&quot;edgeStyle&quot;:&quot;elbowEdgeStyle&quot;,&quot;startArrow&quot;:&quot;none&quot;,&quot;endArrow&quot;:&quot;none&quot;};" vertex="1" parent="vMDBgwL5FvgC56sLGkDT-1">
          <mxGeometry x="40" y="120" width="120" height="40" as="geometry" />
        </mxCell>
        <mxCell id="vMDBgwL5FvgC56sLGkDT-5" value="Threa2" style="whiteSpace=wrap;html=1;treeFolding=1;treeMoving=1;newEdgeStyle={&quot;edgeStyle&quot;:&quot;elbowEdgeStyle&quot;,&quot;startArrow&quot;:&quot;none&quot;,&quot;endArrow&quot;:&quot;none&quot;};fillColor=#fad7ac;strokeColor=#b46504;" vertex="1" parent="vMDBgwL5FvgC56sLGkDT-1">
          <mxGeometry x="190" y="40" width="120" height="40" as="geometry" />
        </mxCell>
        <mxCell id="vMDBgwL5FvgC56sLGkDT-6" value="EventLoop1" style="whiteSpace=wrap;html=1;treeFolding=1;treeMoving=1;newEdgeStyle={&quot;edgeStyle&quot;:&quot;elbowEdgeStyle&quot;,&quot;startArrow&quot;:&quot;none&quot;,&quot;endArrow&quot;:&quot;none&quot;};" vertex="1" parent="vMDBgwL5FvgC56sLGkDT-1">
          <mxGeometry x="190" y="120" width="120" height="40" as="geometry" />
        </mxCell>
        <mxCell id="vMDBgwL5FvgC56sLGkDT-7" value="Thread_n" style="whiteSpace=wrap;html=1;treeFolding=1;treeMoving=1;newEdgeStyle={&quot;edgeStyle&quot;:&quot;elbowEdgeStyle&quot;,&quot;startArrow&quot;:&quot;none&quot;,&quot;endArrow&quot;:&quot;none&quot;};fillColor=#fad7ac;strokeColor=#b46504;" vertex="1" parent="vMDBgwL5FvgC56sLGkDT-1">
          <mxGeometry x="350" y="40" width="120" height="40" as="geometry" />
        </mxCell>
        <mxCell id="vMDBgwL5FvgC56sLGkDT-8" value="EventLoop_n" style="whiteSpace=wrap;html=1;treeFolding=1;treeMoving=1;newEdgeStyle={&quot;edgeStyle&quot;:&quot;elbowEdgeStyle&quot;,&quot;startArrow&quot;:&quot;none&quot;,&quot;endArrow&quot;:&quot;none&quot;};" vertex="1" parent="vMDBgwL5FvgC56sLGkDT-1">
          <mxGeometry x="350" y="120" width="120" height="40" as="geometry" />
        </mxCell>
        <mxCell id="vMDBgwL5FvgC56sLGkDT-9" value="" style="edgeStyle=elbowEdgeStyle;rounded=0;orthogonalLoop=1;jettySize=auto;html=1;elbow=vertical;startArrow=none;endArrow=classic;endFill=1;" edge="1" source="vMDBgwL5FvgC56sLGkDT-5" target="vMDBgwL5FvgC56sLGkDT-10" parent="vMDBgwL5FvgC56sLGkDT-1">
          <mxGeometry relative="1" as="geometry" />
        </mxCell>
        <mxCell id="vMDBgwL5FvgC56sLGkDT-10" value="EventLoop2" style="whiteSpace=wrap;html=1;treeFolding=1;treeMoving=1;newEdgeStyle={&quot;edgeStyle&quot;:&quot;elbowEdgeStyle&quot;,&quot;startArrow&quot;:&quot;none&quot;,&quot;endArrow&quot;:&quot;none&quot;};fillColor=#d0cee2;strokeColor=#56517e;" vertex="1" parent="vMDBgwL5FvgC56sLGkDT-1">
          <mxGeometry x="190" y="120" width="120" height="40" as="geometry" />
        </mxCell>
        <mxCell id="vMDBgwL5FvgC56sLGkDT-11" value="" style="edgeStyle=elbowEdgeStyle;rounded=0;orthogonalLoop=1;jettySize=auto;html=1;elbow=vertical;startArrow=none;endArrow=classic;endFill=1;" edge="1" source="vMDBgwL5FvgC56sLGkDT-7" target="vMDBgwL5FvgC56sLGkDT-12" parent="vMDBgwL5FvgC56sLGkDT-1">
          <mxGeometry relative="1" as="geometry" />
        </mxCell>
        <mxCell id="vMDBgwL5FvgC56sLGkDT-12" value="EventLoop_n" style="whiteSpace=wrap;html=1;treeFolding=1;treeMoving=1;newEdgeStyle={&quot;edgeStyle&quot;:&quot;elbowEdgeStyle&quot;,&quot;startArrow&quot;:&quot;none&quot;,&quot;endArrow&quot;:&quot;none&quot;};fillColor=#d0cee2;strokeColor=#56517e;" vertex="1" parent="vMDBgwL5FvgC56sLGkDT-1">
          <mxGeometry x="350" y="120" width="120" height="40" as="geometry" />
        </mxCell>
        <mxCell id="vMDBgwL5FvgC56sLGkDT-15" value="" style="edgeStyle=elbowEdgeStyle;rounded=0;orthogonalLoop=1;jettySize=auto;html=1;elbow=vertical;startArrow=none;endArrow=classicThin;endFill=1;" edge="1" source="vMDBgwL5FvgC56sLGkDT-3" target="vMDBgwL5FvgC56sLGkDT-16" parent="vMDBgwL5FvgC56sLGkDT-1">
          <mxGeometry relative="1" as="geometry" />
        </mxCell>
        <mxCell id="vMDBgwL5FvgC56sLGkDT-16" value="EventLoop1" style="whiteSpace=wrap;html=1;treeFolding=1;treeMoving=1;newEdgeStyle={&quot;edgeStyle&quot;:&quot;elbowEdgeStyle&quot;,&quot;startArrow&quot;:&quot;none&quot;,&quot;endArrow&quot;:&quot;none&quot;};fillColor=#d0cee2;strokeColor=#56517e;" vertex="1" parent="vMDBgwL5FvgC56sLGkDT-1">
          <mxGeometry x="40" y="120" width="120" height="40" as="geometry" />
        </mxCell>
      </root>
    </mxGraphModel>
  </diagram>
  <diagram id="0oR5Vdcxd3pB5u6UezNK" name="EventLoop">
    <mxGraphModel dx="794" dy="481" grid="1" gridSize="10" guides="1" tooltips="1" connect="1" arrows="1" fold="1" page="1" pageScale="1" pageWidth="827" pageHeight="1169" math="0" shadow="0">
      <root>
        <mxCell id="0" />
        <mxCell id="1" parent="0" />
        <mxCell id="gmtgh63c2dTA6Q8ecVrJ-1" value="EventLoop" style="swimlane;fontStyle=0;childLayout=stackLayout;horizontal=1;startSize=26;horizontalStack=0;resizeParent=1;resizeParentMax=0;resizeLast=0;collapsible=1;marginBottom=0;align=center;fontSize=14;fillColor=#f5f5f5;fontColor=#333333;strokeColor=#666666;" vertex="1" parent="1">
          <mxGeometry x="200" y="160" width="300" height="236" as="geometry" />
        </mxCell>
        <mxCell id="gmtgh63c2dTA6Q8ecVrJ-2" value="thread_id_ (IP和PORT信息)" style="text;strokeColor=#82b366;fillColor=#d5e8d4;spacingLeft=4;spacingRight=4;overflow=hidden;rotatable=0;points=[[0,0.5],[1,0.5]];portConstraint=eastwest;fontSize=12;whiteSpace=wrap;html=1;" vertex="1" parent="gmtgh63c2dTA6Q8ecVrJ-1">
          <mxGeometry y="26" width="300" height="30" as="geometry" />
        </mxCell>
        <mxCell id="IlPoJIjW-K6W-s42DUQ8-2" value="poller" style="text;strokeColor=#82b366;fillColor=#d5e8d4;spacingLeft=4;spacingRight=4;overflow=hidden;rotatable=0;points=[[0,0.5],[1,0.5]];portConstraint=eastwest;fontSize=12;whiteSpace=wrap;html=1;" vertex="1" parent="gmtgh63c2dTA6Q8ecVrJ-1">
          <mxGeometry y="56" width="300" height="30" as="geometry" />
        </mxCell>
        <mxCell id="gmtgh63c2dTA6Q8ecVrJ-3" value="epollfd (干嘛的)" style="text;strokeColor=#d79b00;fillColor=#ffe6cc;spacingLeft=4;spacingRight=4;overflow=hidden;rotatable=0;points=[[0,0.5],[1,0.5]];portConstraint=eastwest;fontSize=12;whiteSpace=wrap;html=1;" vertex="1" parent="gmtgh63c2dTA6Q8ecVrJ-1">
          <mxGeometry y="86" width="300" height="30" as="geometry" />
        </mxCell>
        <mxCell id="gmtgh63c2dTA6Q8ecVrJ-4" value="events_list_" style="text;strokeColor=#d79b00;fillColor=#ffe6cc;spacingLeft=4;spacingRight=4;overflow=hidden;rotatable=0;points=[[0,0.5],[1,0.5]];portConstraint=eastwest;fontSize=12;whiteSpace=wrap;html=1;" vertex="1" parent="gmtgh63c2dTA6Q8ecVrJ-1">
          <mxGeometry y="116" width="300" height="30" as="geometry" />
        </mxCell>
        <mxCell id="gmtgh63c2dTA6Q8ecVrJ-5" value="wakeupfd(eventfd，连接建立事件通知)" style="text;strokeColor=#b85450;fillColor=#f8cecc;spacingLeft=4;spacingRight=4;overflow=hidden;rotatable=0;points=[[0,0.5],[1,0.5]];portConstraint=eastwest;fontSize=12;whiteSpace=wrap;html=1;" vertex="1" parent="gmtgh63c2dTA6Q8ecVrJ-1">
          <mxGeometry y="146" width="300" height="30" as="geometry" />
        </mxCell>
        <mxCell id="gmtgh63c2dTA6Q8ecVrJ-6" value="activaChannels(发生事件的channel)" style="text;strokeColor=#b85450;fillColor=#f8cecc;spacingLeft=4;spacingRight=4;overflow=hidden;rotatable=0;points=[[0,0.5],[1,0.5]];portConstraint=eastwest;fontSize=12;whiteSpace=wrap;html=1;" vertex="1" parent="gmtgh63c2dTA6Q8ecVrJ-1">
          <mxGeometry y="176" width="300" height="30" as="geometry" />
        </mxCell>
        <mxCell id="gmtgh63c2dTA6Q8ecVrJ-7" value="pendingFactors(正在执行的事件)" style="text;strokeColor=#9673a6;fillColor=#e1d5e7;spacingLeft=4;spacingRight=4;overflow=hidden;rotatable=0;points=[[0,0.5],[1,0.5]];portConstraint=eastwest;fontSize=12;whiteSpace=wrap;html=1;" vertex="1" parent="gmtgh63c2dTA6Q8ecVrJ-1">
          <mxGeometry y="206" width="300" height="30" as="geometry" />
        </mxCell>
        <mxCell id="gmtgh63c2dTA6Q8ecVrJ-9" value="wakeupChannel" style="text;strokeColor=#b85450;fillColor=#f8cecc;spacingLeft=4;spacingRight=4;overflow=hidden;rotatable=0;points=[[0,0.5],[1,0.5]];portConstraint=eastwest;fontSize=12;whiteSpace=wrap;html=1;" vertex="1" parent="1">
          <mxGeometry x="620" y="276" width="130" height="30" as="geometry" />
        </mxCell>
        <mxCell id="gmtgh63c2dTA6Q8ecVrJ-11" style="edgeStyle=orthogonalEdgeStyle;rounded=0;orthogonalLoop=1;jettySize=auto;html=1;exitX=1;exitY=0.5;exitDx=0;exitDy=0;entryX=0;entryY=0.5;entryDx=0;entryDy=0;" edge="1" parent="1" source="gmtgh63c2dTA6Q8ecVrJ-5" target="gmtgh63c2dTA6Q8ecVrJ-9">
          <mxGeometry relative="1" as="geometry" />
        </mxCell>
        <mxCell id="IlPoJIjW-K6W-s42DUQ8-1" value="构造，初始化：&lt;div&gt;looping_:false&lt;/div&gt;&lt;div&gt;&lt;br&gt;&lt;/div&gt;" style="rounded=0;whiteSpace=wrap;html=1;" vertex="1" parent="1">
          <mxGeometry x="200" y="440" width="120" height="60" as="geometry" />
        </mxCell>
      </root>
    </mxGraphModel>
  </diagram>
  <diagram id="om3bjEpw8sK467-peoe3" name="socket+buff">
    <mxGraphModel dx="1221" dy="721" grid="1" gridSize="10" guides="1" tooltips="1" connect="1" arrows="1" fold="1" page="1" pageScale="1" pageWidth="827" pageHeight="1169" math="0" shadow="0">
      <root>
        <mxCell id="0" />
        <mxCell id="1" parent="0" />
        <mxCell id="4oBQpDFgPHRb3YLUnemQ-1" value="fd" style="ellipse;whiteSpace=wrap;html=1;aspect=fixed;" vertex="1" parent="1">
          <mxGeometry x="200" y="200" width="80" height="80" as="geometry" />
        </mxCell>
        <mxCell id="4oBQpDFgPHRb3YLUnemQ-2" value="connection" style="ellipse;whiteSpace=wrap;html=1;aspect=fixed;" vertex="1" parent="1">
          <mxGeometry x="360" y="200" width="80" height="80" as="geometry" />
        </mxCell>
        <mxCell id="4oBQpDFgPHRb3YLUnemQ-3" value="Channel" style="ellipse;whiteSpace=wrap;html=1;aspect=fixed;" vertex="1" parent="1">
          <mxGeometry x="280" y="70" width="80" height="80" as="geometry" />
        </mxCell>
        <mxCell id="G1qNrz-Fdex_5dfP8tPB-1" value="Buffer" style="swimlane;fontStyle=0;childLayout=stackLayout;horizontal=1;startSize=26;horizontalStack=0;resizeParent=1;resizeParentMax=0;resizeLast=0;collapsible=1;marginBottom=0;align=center;fontSize=14;fillColor=#f5f5f5;fontColor=#333333;strokeColor=#666666;" vertex="1" parent="1">
          <mxGeometry x="80" y="440" width="300" height="116" as="geometry" />
        </mxCell>
        <mxCell id="G1qNrz-Fdex_5dfP8tPB-2" value="vector&amp;lt;char&amp;gt; buffer" style="text;strokeColor=#82b366;fillColor=#d5e8d4;spacingLeft=4;spacingRight=4;overflow=hidden;rotatable=0;points=[[0,0.5],[1,0.5]];portConstraint=eastwest;fontSize=12;whiteSpace=wrap;html=1;" vertex="1" parent="G1qNrz-Fdex_5dfP8tPB-1">
          <mxGeometry y="26" width="300" height="30" as="geometry" />
        </mxCell>
        <mxCell id="G1qNrz-Fdex_5dfP8tPB-3" value="readerIndex_" style="text;strokeColor=#d79b00;fillColor=#ffe6cc;spacingLeft=4;spacingRight=4;overflow=hidden;rotatable=0;points=[[0,0.5],[1,0.5]];portConstraint=eastwest;fontSize=12;whiteSpace=wrap;html=1;" vertex="1" parent="G1qNrz-Fdex_5dfP8tPB-1">
          <mxGeometry y="56" width="300" height="30" as="geometry" />
        </mxCell>
        <mxCell id="G1qNrz-Fdex_5dfP8tPB-4" value="writerIndex_" style="text;strokeColor=#d79b00;fillColor=#ffe6cc;spacingLeft=4;spacingRight=4;overflow=hidden;rotatable=0;points=[[0,0.5],[1,0.5]];portConstraint=eastwest;fontSize=12;whiteSpace=wrap;html=1;" vertex="1" parent="G1qNrz-Fdex_5dfP8tPB-1">
          <mxGeometry y="86" width="300" height="30" as="geometry" />
        </mxCell>
        <mxCell id="G1qNrz-Fdex_5dfP8tPB-16" value="vector&amp;lt;char&amp;gt; buffer_" style="text;html=1;align=center;verticalAlign=middle;whiteSpace=wrap;rounded=0;" vertex="1" parent="1">
          <mxGeometry x="80" y="600" width="140" height="30" as="geometry" />
        </mxCell>
        <mxCell id="G1qNrz-Fdex_5dfP8tPB-22" value="通过扩展减少系统调用&lt;div&gt;长消息 扩展&lt;/div&gt;" style="text;html=1;align=center;verticalAlign=middle;whiteSpace=wrap;rounded=0;" vertex="1" parent="1">
          <mxGeometry x="280" y="810" width="200" height="30" as="geometry" />
        </mxCell>
        <mxCell id="dsA9pIQRCsbhNV60Gnat-1" value="" style="group" vertex="1" connectable="0" parent="1">
          <mxGeometry x="160" y="650" width="480" height="73" as="geometry" />
        </mxCell>
        <mxCell id="G1qNrz-Fdex_5dfP8tPB-13" value="" style="rounded=0;whiteSpace=wrap;html=1;" vertex="1" parent="dsA9pIQRCsbhNV60Gnat-1">
          <mxGeometry width="480" height="40" as="geometry" />
        </mxCell>
        <mxCell id="G1qNrz-Fdex_5dfP8tPB-14" value="kCheapPrepend" style="rounded=0;whiteSpace=wrap;html=1;fillColor=#fad9d5;strokeColor=#ae4132;" vertex="1" parent="dsA9pIQRCsbhNV60Gnat-1">
          <mxGeometry width="120" height="40" as="geometry" />
        </mxCell>
        <mxCell id="G1qNrz-Fdex_5dfP8tPB-15" value="" style="rounded=0;whiteSpace=wrap;html=1;fillColor=#fad7ac;strokeColor=#b46504;" vertex="1" parent="dsA9pIQRCsbhNV60Gnat-1">
          <mxGeometry x="190" width="140" height="40" as="geometry" />
        </mxCell>
        <mxCell id="G1qNrz-Fdex_5dfP8tPB-18" value="readerIndex" style="text;html=1;align=center;verticalAlign=middle;whiteSpace=wrap;rounded=0;" vertex="1" parent="dsA9pIQRCsbhNV60Gnat-1">
          <mxGeometry x="160" y="42" width="60" height="30" as="geometry" />
        </mxCell>
        <mxCell id="G1qNrz-Fdex_5dfP8tPB-20" value="writerIndex" style="text;html=1;align=center;verticalAlign=middle;whiteSpace=wrap;rounded=0;" vertex="1" parent="dsA9pIQRCsbhNV60Gnat-1">
          <mxGeometry x="310" y="43" width="60" height="30" as="geometry" />
        </mxCell>
        <mxCell id="G1qNrz-Fdex_5dfP8tPB-21" value="" style="rounded=0;whiteSpace=wrap;html=1;fillColor=#d0cee2;strokeColor=#56517e;" vertex="1" parent="dsA9pIQRCsbhNV60Gnat-1">
          <mxGeometry x="330" width="150" height="40" as="geometry" />
        </mxCell>
      </root>
    </mxGraphModel>
  </diagram>
  <diagram id="SMqR9J_J96PaRQmpYH9E" name="Channel">
    <mxGraphModel dx="794" dy="481" grid="1" gridSize="10" guides="1" tooltips="1" connect="1" arrows="1" fold="1" page="1" pageScale="1" pageWidth="827" pageHeight="1169" math="0" shadow="0">
      <root>
        <mxCell id="0" />
        <mxCell id="1" parent="0" />
        <mxCell id="qP7ozp9gC1pNWGN-coQ_-1" value="Channel" style="swimlane;fontStyle=0;childLayout=stackLayout;horizontal=1;startSize=26;horizontalStack=0;resizeParent=1;resizeParentMax=0;resizeLast=0;collapsible=1;marginBottom=0;align=center;fontSize=14;fillColor=#f5f5f5;fontColor=#333333;strokeColor=#666666;" vertex="1" parent="1">
          <mxGeometry x="80" y="80" width="380" height="236" as="geometry" />
        </mxCell>
        <mxCell id="qP7ozp9gC1pNWGN-coQ_-2" value="eventloop_" style="text;strokeColor=#82b366;fillColor=#d5e8d4;spacingLeft=4;spacingRight=4;overflow=hidden;rotatable=0;points=[[0,0.5],[1,0.5]];portConstraint=eastwest;fontSize=12;whiteSpace=wrap;html=1;" vertex="1" parent="qP7ozp9gC1pNWGN-coQ_-1">
          <mxGeometry y="26" width="380" height="30" as="geometry" />
        </mxCell>
        <mxCell id="qP7ozp9gC1pNWGN-coQ_-3" value="int fd(poller监听的是fd)" style="text;strokeColor=#82b366;fillColor=#d5e8d4;spacingLeft=4;spacingRight=4;overflow=hidden;rotatable=0;points=[[0,0.5],[1,0.5]];portConstraint=eastwest;fontSize=12;whiteSpace=wrap;html=1;" vertex="1" parent="qP7ozp9gC1pNWGN-coQ_-1">
          <mxGeometry y="56" width="380" height="30" as="geometry" />
        </mxCell>
        <mxCell id="qP7ozp9gC1pNWGN-coQ_-4" value="int events (fd监听的事件)" style="text;strokeColor=#d79b00;fillColor=#ffe6cc;spacingLeft=4;spacingRight=4;overflow=hidden;rotatable=0;points=[[0,0.5],[1,0.5]];portConstraint=eastwest;fontSize=12;whiteSpace=wrap;html=1;" vertex="1" parent="qP7ozp9gC1pNWGN-coQ_-1">
          <mxGeometry y="86" width="380" height="30" as="geometry" />
        </mxCell>
        <mxCell id="qP7ozp9gC1pNWGN-coQ_-5" value="int revents (poller返回的事件)" style="text;strokeColor=#d79b00;fillColor=#ffe6cc;spacingLeft=4;spacingRight=4;overflow=hidden;rotatable=0;points=[[0,0.5],[1,0.5]];portConstraint=eastwest;fontSize=12;whiteSpace=wrap;html=1;" vertex="1" parent="qP7ozp9gC1pNWGN-coQ_-1">
          <mxGeometry y="116" width="380" height="30" as="geometry" />
        </mxCell>
        <mxCell id="qP7ozp9gC1pNWGN-coQ_-6" value="tie_ (和连接的绑定)" style="text;strokeColor=#b85450;fillColor=#f8cecc;spacingLeft=4;spacingRight=4;overflow=hidden;rotatable=0;points=[[0,0.5],[1,0.5]];portConstraint=eastwest;fontSize=12;whiteSpace=wrap;html=1;" vertex="1" parent="qP7ozp9gC1pNWGN-coQ_-1">
          <mxGeometry y="146" width="380" height="30" as="geometry" />
        </mxCell>
        <mxCell id="qP7ozp9gC1pNWGN-coQ_-7" value="kNodeEvent、kReadEvent、kWriteEvent 监听的事件" style="text;strokeColor=#b85450;fillColor=#f8cecc;spacingLeft=4;spacingRight=4;overflow=hidden;rotatable=0;points=[[0,0.5],[1,0.5]];portConstraint=eastwest;fontSize=12;whiteSpace=wrap;html=1;" vertex="1" parent="qP7ozp9gC1pNWGN-coQ_-1">
          <mxGeometry y="176" width="380" height="30" as="geometry" />
        </mxCell>
        <mxCell id="qP7ozp9gC1pNWGN-coQ_-8" value="read、write、close、error等事件的Callback" style="text;strokeColor=#9673a6;fillColor=#e1d5e7;spacingLeft=4;spacingRight=4;overflow=hidden;rotatable=0;points=[[0,0.5],[1,0.5]];portConstraint=eastwest;fontSize=12;whiteSpace=wrap;html=1;" vertex="1" parent="qP7ozp9gC1pNWGN-coQ_-1">
          <mxGeometry y="206" width="380" height="30" as="geometry" />
        </mxCell>
        <mxCell id="StJW3lE70OtS_cwBCV6t-1" value="如给acceptChannel设置读回调函数，也就是连接建立的轮询subloop并唤醒操作" style="text;html=1;align=center;verticalAlign=middle;whiteSpace=wrap;rounded=0;" vertex="1" parent="1">
          <mxGeometry x="550" y="286" width="230" height="74" as="geometry" />
        </mxCell>
      </root>
    </mxGraphModel>
  </diagram>
  <diagram id="6zyCShtYngua3Fmfecb0" name="Epoller">
    <mxGraphModel dx="662" dy="401" grid="1" gridSize="10" guides="1" tooltips="1" connect="1" arrows="1" fold="1" page="1" pageScale="1" pageWidth="827" pageHeight="1169" math="0" shadow="0">
      <root>
        <mxCell id="0" />
        <mxCell id="1" parent="0" />
        <mxCell id="w1ImtNu1GwP-rgwSyhNL-1" value="Poller" style="swimlane;fontStyle=0;childLayout=stackLayout;horizontal=1;startSize=26;horizontalStack=0;resizeParent=1;resizeParentMax=0;resizeLast=0;collapsible=1;marginBottom=0;align=center;fontSize=14;fillColor=#f5f5f5;fontColor=#333333;strokeColor=#666666;" vertex="1" parent="1">
          <mxGeometry x="80" y="80" width="380" height="86" as="geometry" />
        </mxCell>
        <mxCell id="w1ImtNu1GwP-rgwSyhNL-2" value="unordered_map&amp;lt;int,Channel*&amp;gt; channels&amp;nbsp; &amp;nbsp; (channel管理)" style="text;strokeColor=#82b366;fillColor=#d5e8d4;spacingLeft=4;spacingRight=4;overflow=hidden;rotatable=0;points=[[0,0.5],[1,0.5]];portConstraint=eastwest;fontSize=12;whiteSpace=wrap;html=1;" vertex="1" parent="w1ImtNu1GwP-rgwSyhNL-1">
          <mxGeometry y="26" width="380" height="30" as="geometry" />
        </mxCell>
        <mxCell id="w1ImtNu1GwP-rgwSyhNL-3" value="EventLoop *ownerLoop_&amp;nbsp; （所属的EventLoop）" style="text;strokeColor=#82b366;fillColor=#d5e8d4;spacingLeft=4;spacingRight=4;overflow=hidden;rotatable=0;points=[[0,0.5],[1,0.5]];portConstraint=eastwest;fontSize=12;whiteSpace=wrap;html=1;" vertex="1" parent="w1ImtNu1GwP-rgwSyhNL-1">
          <mxGeometry y="56" width="380" height="30" as="geometry" />
        </mxCell>
        <mxCell id="w1ImtNu1GwP-rgwSyhNL-9" value="Epoller" style="swimlane;fontStyle=0;childLayout=stackLayout;horizontal=1;startSize=26;horizontalStack=0;resizeParent=1;resizeParentMax=0;resizeLast=0;collapsible=1;marginBottom=0;align=center;fontSize=14;fillColor=#f5f5f5;fontColor=#333333;strokeColor=#666666;" vertex="1" parent="1">
          <mxGeometry x="80" y="240" width="380" height="116" as="geometry" />
        </mxCell>
        <mxCell id="w1ImtNu1GwP-rgwSyhNL-10" value="poller" style="text;strokeColor=#82b366;fillColor=#d5e8d4;spacingLeft=4;spacingRight=4;overflow=hidden;rotatable=0;points=[[0,0.5],[1,0.5]];portConstraint=eastwest;fontSize=12;whiteSpace=wrap;html=1;" vertex="1" parent="w1ImtNu1GwP-rgwSyhNL-9">
          <mxGeometry y="26" width="380" height="30" as="geometry" />
        </mxCell>
        <mxCell id="w1ImtNu1GwP-rgwSyhNL-11" value="epollfd" style="text;strokeColor=#82b366;fillColor=#d5e8d4;spacingLeft=4;spacingRight=4;overflow=hidden;rotatable=0;points=[[0,0.5],[1,0.5]];portConstraint=eastwest;fontSize=12;whiteSpace=wrap;html=1;" vertex="1" parent="w1ImtNu1GwP-rgwSyhNL-9">
          <mxGeometry y="56" width="380" height="30" as="geometry" />
        </mxCell>
        <mxCell id="w1ImtNu1GwP-rgwSyhNL-12" value="vector&amp;lt;epoll_event&amp;gt; events_ (epoll_wait发生的事件，适时进行扩容)" style="text;strokeColor=#82b366;fillColor=#d5e8d4;spacingLeft=4;spacingRight=4;overflow=hidden;rotatable=0;points=[[0,0.5],[1,0.5]];portConstraint=eastwest;fontSize=12;whiteSpace=wrap;html=1;" vertex="1" parent="w1ImtNu1GwP-rgwSyhNL-9">
          <mxGeometry y="86" width="380" height="30" as="geometry" />
        </mxCell>
        <mxCell id="w1ImtNu1GwP-rgwSyhNL-13" value="epoll_event" style="swimlane;fontStyle=0;childLayout=stackLayout;horizontal=1;startSize=26;horizontalStack=0;resizeParent=1;resizeParentMax=0;resizeLast=0;collapsible=1;marginBottom=0;align=center;fontSize=14;fillColor=#f5f5f5;fontColor=#333333;strokeColor=#666666;" vertex="1" parent="1">
          <mxGeometry x="80" y="420" width="380" height="116" as="geometry" />
        </mxCell>
        <mxCell id="w1ImtNu1GwP-rgwSyhNL-14" value="events&amp;nbsp; (设置为channel的events)" style="text;strokeColor=#82b366;fillColor=#d5e8d4;spacingLeft=4;spacingRight=4;overflow=hidden;rotatable=0;points=[[0,0.5],[1,0.5]];portConstraint=eastwest;fontSize=12;whiteSpace=wrap;html=1;" vertex="1" parent="w1ImtNu1GwP-rgwSyhNL-13">
          <mxGeometry y="26" width="380" height="30" as="geometry" />
        </mxCell>
        <mxCell id="w1ImtNu1GwP-rgwSyhNL-15" value="data.fd (设置为channel的fd)" style="text;strokeColor=#82b366;fillColor=#d5e8d4;spacingLeft=4;spacingRight=4;overflow=hidden;rotatable=0;points=[[0,0.5],[1,0.5]];portConstraint=eastwest;fontSize=12;whiteSpace=wrap;html=1;" vertex="1" parent="w1ImtNu1GwP-rgwSyhNL-13">
          <mxGeometry y="56" width="380" height="30" as="geometry" />
        </mxCell>
        <mxCell id="w1ImtNu1GwP-rgwSyhNL-16" value="data.ptr （设置为channel）" style="text;strokeColor=#82b366;fillColor=#d5e8d4;spacingLeft=4;spacingRight=4;overflow=hidden;rotatable=0;points=[[0,0.5],[1,0.5]];portConstraint=eastwest;fontSize=12;whiteSpace=wrap;html=1;" vertex="1" parent="w1ImtNu1GwP-rgwSyhNL-13">
          <mxGeometry y="86" width="380" height="30" as="geometry" />
        </mxCell>
        <mxCell id="w1ImtNu1GwP-rgwSyhNL-17" value="&lt;pre style=&quot;background-color:#2b2b2b;color:#a9b7c6;font-family:&#39;JetBrains Mono&#39;,monospace;font-size:12.0pt;&quot;&gt;epoll_ctl&lt;/pre&gt;" style="text;html=1;align=center;verticalAlign=middle;resizable=0;points=[];autosize=1;strokeColor=none;fillColor=none;" vertex="1" parent="1">
          <mxGeometry x="520" y="440" width="100" height="60" as="geometry" />
        </mxCell>
      </root>
    </mxGraphModel>
  </diagram>
  <diagram id="5j8nOEsqew0Iay94Ypii" name="Acceptor">
    <mxGraphModel dx="1221" dy="721" grid="1" gridSize="10" guides="1" tooltips="1" connect="1" arrows="1" fold="1" page="1" pageScale="1" pageWidth="827" pageHeight="1169" math="0" shadow="0">
      <root>
        <mxCell id="0" />
        <mxCell id="1" parent="0" />
        <mxCell id="lPJe2ku_eVg_kH74KesT-1" value="Acceptor" style="swimlane;fontStyle=0;childLayout=stackLayout;horizontal=1;startSize=26;horizontalStack=0;resizeParent=1;resizeParentMax=0;resizeLast=0;collapsible=1;marginBottom=0;align=center;fontSize=14;fillColor=#f5f5f5;fontColor=#333333;strokeColor=#666666;" vertex="1" parent="1">
          <mxGeometry x="160" y="80" width="390" height="176" as="geometry" />
        </mxCell>
        <mxCell id="lPJe2ku_eVg_kH74KesT-2" value="loop_(指向mainLoop的指针)" style="text;strokeColor=#82b366;fillColor=#d5e8d4;spacingLeft=4;spacingRight=4;overflow=hidden;rotatable=0;points=[[0,0.5],[1,0.5]];portConstraint=eastwest;fontSize=12;whiteSpace=wrap;html=1;" vertex="1" parent="lPJe2ku_eVg_kH74KesT-1">
          <mxGeometry y="26" width="390" height="30" as="geometry" />
        </mxCell>
        <mxCell id="lPJe2ku_eVg_kH74KesT-3" value="acceptSocket_ （非阻塞socket_）" style="text;strokeColor=#d79b00;fillColor=#ffe6cc;spacingLeft=4;spacingRight=4;overflow=hidden;rotatable=0;points=[[0,0.5],[1,0.5]];portConstraint=eastwest;fontSize=12;whiteSpace=wrap;html=1;" vertex="1" parent="lPJe2ku_eVg_kH74KesT-1">
          <mxGeometry y="56" width="390" height="30" as="geometry" />
        </mxCell>
        <mxCell id="lPJe2ku_eVg_kH74KesT-4" value="acceptChannel_" style="text;strokeColor=#d79b00;fillColor=#ffe6cc;spacingLeft=4;spacingRight=4;overflow=hidden;rotatable=0;points=[[0,0.5],[1,0.5]];portConstraint=eastwest;fontSize=12;whiteSpace=wrap;html=1;" vertex="1" parent="lPJe2ku_eVg_kH74KesT-1">
          <mxGeometry y="86" width="390" height="30" as="geometry" />
        </mxCell>
        <mxCell id="lPJe2ku_eVg_kH74KesT-5" value="newConnectionCallback_ (tcp服务器开发自定义连接建立回调)" style="text;strokeColor=#b85450;fillColor=#f8cecc;spacingLeft=4;spacingRight=4;overflow=hidden;rotatable=0;points=[[0,0.5],[1,0.5]];portConstraint=eastwest;fontSize=12;whiteSpace=wrap;html=1;" vertex="1" parent="lPJe2ku_eVg_kH74KesT-1">
          <mxGeometry y="116" width="390" height="30" as="geometry" />
        </mxCell>
        <mxCell id="lPJe2ku_eVg_kH74KesT-6" value="listenning (监听状态)" style="text;strokeColor=#b85450;fillColor=#f8cecc;spacingLeft=4;spacingRight=4;overflow=hidden;rotatable=0;points=[[0,0.5],[1,0.5]];portConstraint=eastwest;fontSize=12;whiteSpace=wrap;html=1;" vertex="1" parent="lPJe2ku_eVg_kH74KesT-1">
          <mxGeometry y="146" width="390" height="30" as="geometry" />
        </mxCell>
        <mxCell id="38GYyfX_S_ww9Yq05ZA7-5" style="rounded=0;orthogonalLoop=1;jettySize=auto;html=1;entryX=0.342;entryY=0;entryDx=0;entryDy=0;entryPerimeter=0;exitX=1;exitY=0.5;exitDx=0;exitDy=0;" edge="1" parent="1" source="38GYyfX_S_ww9Yq05ZA7-1" target="38GYyfX_S_ww9Yq05ZA7-3">
          <mxGeometry relative="1" as="geometry">
            <mxPoint x="440" y="420" as="sourcePoint" />
          </mxGeometry>
        </mxCell>
        <mxCell id="38GYyfX_S_ww9Yq05ZA7-1" value="" style="ellipse;whiteSpace=wrap;html=1;aspect=fixed;" vertex="1" parent="1">
          <mxGeometry x="414" y="400" width="40" height="40" as="geometry" />
        </mxCell>
        <mxCell id="38GYyfX_S_ww9Yq05ZA7-2" value="" style="ellipse;whiteSpace=wrap;html=1;aspect=fixed;" vertex="1" parent="1">
          <mxGeometry x="360" y="481" width="40" height="40" as="geometry" />
        </mxCell>
        <mxCell id="38GYyfX_S_ww9Yq05ZA7-7" style="rounded=0;orthogonalLoop=1;jettySize=auto;html=1;exitX=0;exitY=1;exitDx=0;exitDy=0;entryX=0.5;entryY=0;entryDx=0;entryDy=0;" edge="1" parent="1" source="38GYyfX_S_ww9Yq05ZA7-3" target="38GYyfX_S_ww9Yq05ZA7-6">
          <mxGeometry relative="1" as="geometry" />
        </mxCell>
        <mxCell id="38GYyfX_S_ww9Yq05ZA7-3" value="" style="ellipse;whiteSpace=wrap;html=1;aspect=fixed;" vertex="1" parent="1">
          <mxGeometry x="480" y="481" width="40" height="40" as="geometry" />
        </mxCell>
        <mxCell id="38GYyfX_S_ww9Yq05ZA7-4" style="rounded=0;orthogonalLoop=1;jettySize=auto;html=1;exitX=0;exitY=0.5;exitDx=0;exitDy=0;entryX=0.5;entryY=0;entryDx=0;entryDy=0;" edge="1" parent="1" source="38GYyfX_S_ww9Yq05ZA7-1" target="38GYyfX_S_ww9Yq05ZA7-2">
          <mxGeometry relative="1" as="geometry" />
        </mxCell>
        <mxCell id="38GYyfX_S_ww9Yq05ZA7-12" style="rounded=0;orthogonalLoop=1;jettySize=auto;html=1;exitX=0;exitY=1;exitDx=0;exitDy=0;entryX=0.5;entryY=0;entryDx=0;entryDy=0;shape=link;" edge="1" parent="1" source="38GYyfX_S_ww9Yq05ZA7-6" target="38GYyfX_S_ww9Yq05ZA7-10">
          <mxGeometry relative="1" as="geometry" />
        </mxCell>
        <mxCell id="38GYyfX_S_ww9Yq05ZA7-6" value="" style="ellipse;whiteSpace=wrap;html=1;aspect=fixed;" vertex="1" parent="1">
          <mxGeometry x="439" y="560" width="40" height="40" as="geometry" />
        </mxCell>
        <mxCell id="38GYyfX_S_ww9Yq05ZA7-8" value="acceptfd&lt;div&gt;acceptChannel =&amp;gt; epoll_event&lt;/div&gt;" style="text;html=1;align=center;verticalAlign=middle;whiteSpace=wrap;rounded=0;" vertex="1" parent="1">
          <mxGeometry x="530" y="481" width="180" height="30" as="geometry" />
        </mxCell>
        <mxCell id="38GYyfX_S_ww9Yq05ZA7-9" value="" style="rounded=0;whiteSpace=wrap;html=1;" vertex="1" parent="1">
          <mxGeometry x="360" y="640" width="280" height="40" as="geometry" />
        </mxCell>
        <mxCell id="38GYyfX_S_ww9Yq05ZA7-10" value="fd1" style="rounded=0;whiteSpace=wrap;html=1;" vertex="1" parent="1">
          <mxGeometry x="360" y="640" width="40" height="40" as="geometry" />
        </mxCell>
        <mxCell id="38GYyfX_S_ww9Yq05ZA7-11" value="fd2" style="rounded=0;whiteSpace=wrap;html=1;" vertex="1" parent="1">
          <mxGeometry x="399" y="640" width="40" height="40" as="geometry" />
        </mxCell>
        <mxCell id="38GYyfX_S_ww9Yq05ZA7-13" value="Text" style="text;html=1;align=center;verticalAlign=middle;whiteSpace=wrap;rounded=0;" vertex="1" parent="1">
          <mxGeometry x="350" y="560" width="60" height="30" as="geometry" />
        </mxCell>
        <mxCell id="38GYyfX_S_ww9Yq05ZA7-14" value="mainLoop" style="text;html=1;align=center;verticalAlign=middle;whiteSpace=wrap;rounded=0;" vertex="1" parent="1">
          <mxGeometry x="300" y="370" width="60" height="30" as="geometry" />
        </mxCell>
      </root>
    </mxGraphModel>
  </diagram>
</mxfile>
